<mxfile host="65bd71144e">
    <diagram id="OATIJo3CiyFjq6ZmBAd_" name="Page-1">
        <mxGraphModel dx="1514" dy="1964" grid="1" gridSize="10" guides="1" tooltips="1" connect="1" arrows="1" fold="1" page="1" pageScale="1" pageWidth="850" pageHeight="1100" math="0" shadow="0">
            <root>
                <mxCell id="0"/>
                <mxCell id="1" parent="0"/>
                <mxCell id="5" style="edgeStyle=none;html=1;entryX=0;entryY=0.5;entryDx=0;entryDy=0;startArrow=none;" edge="1" parent="1" source="12" target="3">
                    <mxGeometry relative="1" as="geometry"/>
                </mxCell>
                <mxCell id="2" value="UI" style="whiteSpace=wrap;html=1;direction=south;" vertex="1" parent="1">
                    <mxGeometry x="25" y="255" width="60" height="50" as="geometry"/>
                </mxCell>
                <mxCell id="6" style="edgeStyle=none;html=1;entryX=0;entryY=0.25;entryDx=0;entryDy=0;" edge="1" parent="1" source="3" target="4">
                    <mxGeometry relative="1" as="geometry"/>
                </mxCell>
                <mxCell id="7" style="edgeStyle=none;html=1;entryX=0;entryY=0.5;entryDx=0;entryDy=0;" edge="1" parent="1" source="3" target="4">
                    <mxGeometry relative="1" as="geometry"/>
                </mxCell>
                <mxCell id="8" style="edgeStyle=none;html=1;entryX=0;entryY=0.75;entryDx=0;entryDy=0;" edge="1" parent="1" source="3" target="4">
                    <mxGeometry relative="1" as="geometry"/>
                </mxCell>
                <mxCell id="3" value="backend" style="whiteSpace=wrap;html=1;" vertex="1" parent="1">
                    <mxGeometry x="410" y="250" width="60" height="60" as="geometry"/>
                </mxCell>
                <mxCell id="17" style="edgeStyle=none;html=1;entryX=1;entryY=0.75;entryDx=0;entryDy=0;exitX=-0.007;exitY=0.893;exitDx=0;exitDy=0;exitPerimeter=0;" edge="1" parent="1" source="4" target="3">
                    <mxGeometry relative="1" as="geometry">
                        <Array as="points">
                            <mxPoint x="570" y="295"/>
                        </Array>
                    </mxGeometry>
                </mxCell>
                <mxCell id="4" value="oceane" style="whiteSpace=wrap;html=1;" vertex="1" parent="1">
                    <mxGeometry x="660" y="240" width="120" height="60" as="geometry"/>
                </mxCell>
                <mxCell id="10" value="single req&amp;nbsp;&lt;br&gt;for users with &lt;br&gt;100 eds" style="ellipse;shape=cloud;whiteSpace=wrap;html=1;" vertex="1" parent="1">
                    <mxGeometry x="85" y="200" width="120" height="80" as="geometry"/>
                </mxCell>
                <mxCell id="11" value="400 paralled req &lt;br&gt;using a threadpool &lt;br&gt;of 20 worker threads &lt;br&gt;with oceane limit &lt;br&gt;of max 60 incidends &lt;br&gt;for a req" style="ellipse;shape=cloud;whiteSpace=wrap;html=1;" vertex="1" parent="1">
                    <mxGeometry x="490" y="90" width="180" height="160" as="geometry"/>
                </mxCell>
                <mxCell id="18" value="504 timeout" style="edgeStyle=none;html=1;exitX=0;exitY=0.75;exitDx=0;exitDy=0;" edge="1" parent="1" source="12">
                    <mxGeometry relative="1" as="geometry">
                        <mxPoint x="90" y="295" as="targetPoint"/>
                    </mxGeometry>
                </mxCell>
                <mxCell id="13" value="response&amp;nbsp; takes &lt;br&gt;3-5 min for &lt;br&gt;such request" style="ellipse;shape=cloud;whiteSpace=wrap;html=1;" vertex="1" parent="1">
                    <mxGeometry x="490" y="300" width="180" height="160" as="geometry"/>
                </mxCell>
                <mxCell id="19" value="&lt;h1&gt;Current Problem&lt;/h1&gt;&lt;div&gt;&lt;div&gt;- i think root problem is no of calls being made even for such cases i.e more than 500 calls and if one calls takes 1 sec then it is 500 sec which is huge&amp;nbsp;&lt;/div&gt;&lt;div&gt;as shown in 5th july 2024 logs only 149 incidents are being reported on a lot of EDS on QA but still it is taking very long (3-5 min) because of no of calls being made&lt;/div&gt;&lt;div&gt;- so we need to restrict the no of calls and so check whether having these many eds for single user makes sense or not&lt;/div&gt;&lt;div&gt;- one sol could be to make multiple asyn calls from front end for a max of 10 eds at a time so that for a single request backend is not overloaded with a lot of request and so latency is normal, in such cases loading of all incidents for such users will take time(5 min), however we can gradually do the updates of dashboard in the background&lt;/div&gt;&lt;div&gt;- we can increase threadpool size and increase timeout at both ELD and ha proxy level&lt;/div&gt;&lt;/div&gt;&lt;div&gt;- also sending too many req for a single users to oceane is not good they can ratelimit us and other user's also can be imacted in long run&lt;/div&gt;" style="text;html=1;strokeColor=none;fillColor=none;spacing=5;spacingTop=-20;whiteSpace=wrap;overflow=hidden;rounded=0;" vertex="1" parent="1">
                    <mxGeometry x="10" y="-200" width="800" height="220" as="geometry"/>
                </mxCell>
                <mxCell id="20" value="backend" style="whiteSpace=wrap;html=1;" vertex="1" parent="1">
                    <mxGeometry x="410" y="170" width="60" height="60" as="geometry"/>
                </mxCell>
                <mxCell id="21" value="" style="edgeStyle=none;html=1;entryX=0;entryY=0.5;entryDx=0;entryDy=0;endArrow=none;" edge="1" parent="1" source="2" target="12">
                    <mxGeometry relative="1" as="geometry">
                        <mxPoint x="10" y="280" as="sourcePoint"/>
                        <mxPoint x="400" y="280" as="targetPoint"/>
                    </mxGeometry>
                </mxCell>
                <mxCell id="12" value="ELB/HA proxy&lt;br&gt;50/60 sec timout" style="label;whiteSpace=wrap;html=1;image=img/clipart/Gear_128x128.png" vertex="1" parent="1">
                    <mxGeometry x="210" y="250" width="140" height="60" as="geometry"/>
                </mxCell>
                <mxCell id="22" value="backend" style="whiteSpace=wrap;html=1;" vertex="1" parent="1">
                    <mxGeometry x="410" y="330" width="60" height="60" as="geometry"/>
                </mxCell>
                <mxCell id="24" value="possible solutions" style="shape=table;startSize=30;container=1;collapsible=0;childLayout=tableLayout;fixedRows=1;rowLines=0;fontStyle=1;" vertex="1" parent="1">
                    <mxGeometry x="30" y="600" width="740" height="220" as="geometry"/>
                </mxCell>
                <mxCell id="25" value="" style="shape=tableRow;horizontal=0;startSize=0;swimlaneHead=0;swimlaneBody=0;top=0;left=0;bottom=0;right=0;collapsible=0;dropTarget=0;fillColor=none;points=[[0,0.5],[1,0.5]];portConstraint=eastwest;" vertex="1" parent="24">
                    <mxGeometry y="30" width="740" height="30" as="geometry"/>
                </mxCell>
                <mxCell id="26" value="1" style="shape=partialRectangle;html=1;whiteSpace=wrap;connectable=0;fillColor=none;top=0;left=0;bottom=0;right=0;overflow=hidden;pointerEvents=1;" vertex="1" parent="25">
                    <mxGeometry width="164" height="30" as="geometry">
                        <mxRectangle width="164" height="30" as="alternateBounds"/>
                    </mxGeometry>
                </mxCell>
                <mxCell id="27" value="check if a users really needs to have so many eds if not then limit the no of EDS data i.e 10 eds data at a time (functional change)" style="shape=partialRectangle;html=1;whiteSpace=wrap;connectable=0;fillColor=none;top=0;left=0;bottom=0;right=0;align=left;spacingLeft=6;overflow=hidden;" vertex="1" parent="25">
                    <mxGeometry x="164" width="576" height="30" as="geometry">
                        <mxRectangle width="576" height="30" as="alternateBounds"/>
                    </mxGeometry>
                </mxCell>
                <mxCell id="28" value="" style="shape=tableRow;horizontal=0;startSize=0;swimlaneHead=0;swimlaneBody=0;top=0;left=0;bottom=0;right=0;collapsible=0;dropTarget=0;fillColor=none;points=[[0,0.5],[1,0.5]];portConstraint=eastwest;" vertex="1" parent="24">
                    <mxGeometry y="60" width="740" height="30" as="geometry"/>
                </mxCell>
                <mxCell id="29" value="2" style="shape=partialRectangle;html=1;whiteSpace=wrap;connectable=0;fillColor=none;top=0;left=0;bottom=0;right=0;overflow=hidden;" vertex="1" parent="28">
                    <mxGeometry width="164" height="30" as="geometry">
                        <mxRectangle width="164" height="30" as="alternateBounds"/>
                    </mxGeometry>
                </mxCell>
                <mxCell id="30" value="make async calls from front end keep updating data on dashboard with a notification" style="shape=partialRectangle;html=1;whiteSpace=wrap;connectable=0;fillColor=none;top=0;left=0;bottom=0;right=0;align=left;spacingLeft=6;overflow=hidden;" vertex="1" parent="28">
                    <mxGeometry x="164" width="576" height="30" as="geometry">
                        <mxRectangle width="576" height="30" as="alternateBounds"/>
                    </mxGeometry>
                </mxCell>
                <mxCell id="31" value="" style="shape=tableRow;horizontal=0;startSize=0;swimlaneHead=0;swimlaneBody=0;top=0;left=0;bottom=0;right=0;collapsible=0;dropTarget=0;fillColor=none;points=[[0,0.5],[1,0.5]];portConstraint=eastwest;" vertex="1" parent="24">
                    <mxGeometry y="90" width="740" height="30" as="geometry"/>
                </mxCell>
                <mxCell id="32" value="3" style="shape=partialRectangle;html=1;whiteSpace=wrap;connectable=0;fillColor=none;top=0;left=0;bottom=0;right=0;overflow=hidden;" vertex="1" parent="31">
                    <mxGeometry width="164" height="30" as="geometry">
                        <mxRectangle width="164" height="30" as="alternateBounds"/>
                    </mxGeometry>
                </mxCell>
                <mxCell id="33" value="use queue solution i.e for dashboard/incidents add the req to queue and immediately notify users that once req is queued and processed shortly when the response is ready from the queue update the UI" style="shape=partialRectangle;html=1;whiteSpace=wrap;connectable=0;fillColor=none;top=0;left=0;bottom=0;right=0;align=left;spacingLeft=6;overflow=hidden;" vertex="1" parent="31">
                    <mxGeometry x="164" width="576" height="30" as="geometry">
                        <mxRectangle width="576" height="30" as="alternateBounds"/>
                    </mxGeometry>
                </mxCell>
                <mxCell id="35" value="" style="shape=tableRow;horizontal=0;startSize=0;swimlaneHead=0;swimlaneBody=0;top=0;left=0;bottom=0;right=0;collapsible=0;dropTarget=0;fillColor=none;points=[[0,0.5],[1,0.5]];portConstraint=eastwest;" vertex="1" parent="24">
                    <mxGeometry y="120" width="740" height="30" as="geometry"/>
                </mxCell>
                <mxCell id="36" value="4" style="shape=partialRectangle;html=1;whiteSpace=wrap;connectable=0;fillColor=none;top=0;left=0;bottom=0;right=0;overflow=hidden;" vertex="1" parent="35">
                    <mxGeometry width="164" height="30" as="geometry">
                        <mxRectangle width="164" height="30" as="alternateBounds"/>
                    </mxGeometry>
                </mxCell>
                <mxCell id="37" value="check if service workers, Event updates can work here&amp;nbsp;" style="shape=partialRectangle;html=1;whiteSpace=wrap;connectable=0;fillColor=none;top=0;left=0;bottom=0;right=0;align=left;spacingLeft=6;overflow=hidden;" vertex="1" parent="35">
                    <mxGeometry x="164" width="576" height="30" as="geometry">
                        <mxRectangle width="576" height="30" as="alternateBounds"/>
                    </mxGeometry>
                </mxCell>
            </root>
        </mxGraphModel>
    </diagram>
</mxfile>